<svg width="45" height="45" viewBox="0 0 45 45" fill="none" xmlns="http://www.w3.org/2000/svg">
<path d="M22.5 0C10.0771 0 0 10.3353 0 23.0766C0 33.1129 6.24614 41.6403 14.963 44.8292C15.0046 44.8434 15.1573 44.9003 15.1989 44.9146C15.3239 44.9573 15.4627 44.9858 15.6015 44.9858C16.3371 44.9858 16.9201 44.3736 16.9201 43.6333C16.9201 43.5906 16.9201 43.5622 16.9201 43.5195C16.9201 42.2952 16.9201 40.7434 16.9201 39.5049C15.4904 39.8039 13.3251 40.0886 12.1453 39.5049C10.6184 38.7504 9.84115 37.7823 9.10549 35.8747C8.18939 33.5543 6.07958 32.9136 5.9963 32.515C5.91302 32.1022 8.23103 31.49 9.42474 32.8994C10.6184 34.3088 11.826 37.1275 14.3939 36.857C15.657 36.7289 16.4759 36.5153 16.9895 36.3587C17.0867 35.4476 17.3782 34.323 18.1138 33.5258C12.0759 32.5008 8.05058 29.1696 8.05058 22.6352C8.05058 19.6599 8.8834 17.3537 10.3547 15.6311C10.1049 14.2075 9.68846 10.9048 10.7989 9.75166C10.7989 9.75166 12.3674 8.75514 16.8646 12.0009C18.5441 11.6023 20.4041 11.403 22.389 11.403C22.4306 11.403 22.4584 11.403 22.5 11.403C22.5416 11.403 22.5694 11.403 22.611 11.403C24.6098 11.4173 26.4698 11.6166 28.1354 12.0009C32.6326 8.75514 34.2011 9.75166 34.2011 9.75166C35.3115 10.919 34.8951 14.2218 34.6453 15.6311C36.1166 17.3679 36.9494 19.6742 36.9494 22.6352C36.9494 29.1696 32.938 32.5008 26.8862 33.5258C28.0382 34.7643 28.0799 36.7716 28.0799 37.5973C28.0799 38.3803 28.0799 43.6191 28.0799 43.6476C28.0799 44.4021 28.6767 45 29.3985 45C29.5096 45 29.6067 44.9858 29.7178 44.9573C29.7455 44.9573 29.8288 44.9288 29.8566 44.9146C38.6706 41.7827 45 33.1984 45 23.0908C45 10.3211 34.9229 0 22.5 0Z" fill="black"/>
</svg>
