<svg width="725" height="644" viewBox="0 0 725 644" fill="none" xmlns="http://www.w3.org/2000/svg">
<path d="M57.4068 83.3498C162.665 38.2645 132.41 124.036 173.059 134.11C186.166 137.358 209.535 141.227 232.076 146.205C237.026 133.087 238.756 121.26 238.756 121.26C180.062 85.0069 150.77 25.6513 88.461 28.4283C60.5992 29.6701 45.8648 59.0618 42.6411 90.6295C46.5243 88.3392 51.408 85.9193 57.4068 83.3498Z" fill="#FFAB08"/>
<path d="M80.4145 168.608C113.311 164.626 135.654 169.651 157.146 174.491C154.711 144.091 73.8719 132.206 42.5495 116.523C45.3986 146.179 58.5008 171.26 80.4145 168.608Z" fill="#FFAB08"/>
<path d="M153.271 188.305C116.341 249.139 167.601 233.366 260.328 196.798C323.155 172.021 279.442 156.665 232.076 146.205C225.654 163.223 213.813 182.412 193.296 180.768C180.452 179.739 168.946 177.148 157.187 174.5L157.146 174.491C157.485 178.718 156.308 183.302 153.271 188.305Z" fill="#FFAB08"/>
<path d="M153.271 188.305C116.341 249.139 167.601 233.366 260.328 196.798C323.155 172.021 279.442 156.665 232.076 146.205C225.654 163.223 213.813 182.412 193.296 180.768C180.452 179.739 168.946 177.148 157.187 174.5L157.146 174.491C157.485 178.718 156.308 183.302 153.271 188.305Z" fill="#FFAB08"/>
<path d="M42.6411 90.6295C41.7582 99.2753 41.7388 108.084 42.5495 116.523C28.2865 109.382 24.291 101.453 42.6411 90.6295Z" fill="#FFAB08"/>
<path d="M232.076 146.205C209.535 141.227 186.166 137.358 173.059 134.11C132.41 124.036 162.665 38.2645 57.4068 83.3498C51.408 85.9193 46.5243 88.3392 42.6411 90.6295M232.076 146.205C237.026 133.087 238.756 121.26 238.756 121.26C180.062 85.0069 150.77 25.6513 88.461 28.4283C60.5992 29.6701 45.8648 59.0618 42.6411 90.6295M232.076 146.205C225.654 163.223 213.813 182.412 193.296 180.768C180.452 179.739 168.946 177.148 157.187 174.5M232.076 146.205C279.442 156.665 323.155 172.021 260.328 196.798C167.601 233.366 116.341 249.139 153.271 188.305C156.308 183.302 157.485 178.718 157.146 174.491M42.6411 90.6295C41.7582 99.2753 41.7388 108.084 42.5495 116.523M42.6411 90.6295C24.291 101.453 28.2865 109.382 42.5495 116.523M157.146 174.491C135.654 169.651 113.311 164.626 80.4145 168.608C58.5008 171.26 45.3986 146.179 42.5495 116.523M157.146 174.491C154.711 144.091 73.8719 132.206 42.5495 116.523M157.146 174.491L157.187 174.5M157.146 174.491C157.16 174.494 157.174 174.497 157.187 174.5" stroke="black" stroke-width="2"/>
<path d="M680.443 500.519C594.274 425.107 596.537 516.03 554.765 513.047C541.296 512.085 517.875 508.542 494.899 506.309C494.246 492.303 496.256 480.52 496.256 480.52C563.281 464.184 609.485 416.788 667.885 438.688C693.999 448.481 698.927 480.987 692.236 512.006C689.251 508.627 685.354 504.816 680.443 500.519Z" fill="#FFAB08"/>
<path d="M632.21 574.491C602.155 560.536 579.354 558.409 557.417 556.369C569.129 528.21 649.684 541.893 684.32 536.66C672.444 563.983 652.231 583.786 632.21 574.491Z" fill="#FFAB08"/>
<path d="M556.833 570.705C573.152 639.974 529.277 609.131 452.393 545.692C400.301 502.709 446.619 501.617 494.899 506.309C495.747 524.478 501.077 546.388 521.098 551.166C533.63 554.157 545.374 555.249 557.376 556.365L557.417 556.369C555.789 560.284 555.491 565.008 556.833 570.705Z" fill="#FFAB08"/>
<path d="M556.833 570.705C573.152 639.974 529.277 609.131 452.393 545.692C400.301 502.709 446.619 501.617 494.899 506.309C495.747 524.478 501.077 546.388 521.098 551.166C533.63 554.157 545.374 555.249 557.376 556.365L557.417 556.369C555.789 560.284 555.491 565.008 556.833 570.705Z" fill="#FFAB08"/>
<path d="M692.236 512.006C690.403 520.501 687.699 528.885 684.32 536.66C700.092 534.276 706.342 527.971 692.236 512.006Z" fill="#FFAB08"/>
<path d="M494.899 506.309C517.875 508.542 541.296 512.085 554.765 513.047C596.537 516.03 594.274 425.107 680.443 500.519C685.354 504.816 689.251 508.627 692.236 512.006M494.899 506.309C494.246 492.303 496.256 480.52 496.256 480.52C563.281 464.184 609.485 416.788 667.885 438.688C693.999 448.481 698.927 480.987 692.236 512.006M494.899 506.309C495.747 524.478 501.077 546.388 521.098 551.166C533.63 554.157 545.374 555.249 557.376 556.365M494.899 506.309C446.619 501.617 400.301 502.709 452.393 545.692C529.277 609.131 573.152 639.974 556.833 570.705C555.491 565.008 555.789 560.284 557.417 556.369M692.236 512.006C690.403 520.501 687.699 528.885 684.32 536.66M692.236 512.006C706.342 527.971 700.092 534.276 684.32 536.66M557.417 556.369C579.354 558.409 602.155 560.536 632.21 574.491C652.231 583.786 672.444 563.983 684.32 536.66M557.417 556.369C569.129 528.21 649.684 541.893 684.32 536.66M557.417 556.369L557.376 556.365M557.417 556.369C557.403 556.368 557.39 556.366 557.376 556.365" stroke="black" stroke-width="2"/>
</svg>
