<svg width="1579" height="530" viewBox="0 0 1579 530" fill="none" xmlns="http://www.w3.org/2000/svg">
<path d="M1505.33 279.444C1364.84 189.648 1387.91 320.058 1327.12 324.865C1307.52 326.415 1273.03 326.417 1239.46 328.208C1235.47 308.186 1235.8 290.784 1235.8 290.784C1328.73 252.66 1384.93 174.356 1473.78 193.161C1513.51 201.57 1527.69 247.297 1524.81 293.413C1519.78 289.199 1513.34 284.562 1505.33 279.444Z" fill="#FFC208"/>
<path d="M1452.01 396.452C1405.69 382.911 1372.4 384.816 1340.38 386.658C1351.1 343.566 1470.06 345.714 1518.79 330.632C1507.64 372.557 1482.86 405.473 1452.01 396.452Z" fill="#FFC208"/>
<path d="M1342.66 407.426C1381.25 503.599 1311.36 468.752 1186.85 394.17C1102.48 343.637 1168.93 331.972 1239.46 328.208C1244.64 354.182 1257.09 384.564 1286.95 387.081C1305.65 388.657 1322.79 387.67 1340.32 386.662L1340.38 386.658C1338.89 392.65 1339.49 399.517 1342.66 407.426Z" fill="#FFC208"/>
<path d="M1342.66 407.426C1381.25 503.599 1311.36 468.752 1186.85 394.17C1102.48 343.637 1168.93 331.972 1239.46 328.208C1244.64 354.182 1257.09 384.564 1286.95 387.081C1305.65 388.657 1322.79 387.67 1340.32 386.662L1340.38 386.658C1338.89 392.65 1339.49 399.517 1342.66 407.426Z" fill="#FFC208"/>
<path d="M1524.81 293.413C1524.02 306.043 1521.96 318.702 1518.79 330.632C1540.97 323.765 1548.6 313.324 1524.81 293.413Z" fill="#FFC208"/>
<path d="M1239.46 328.208C1273.03 326.417 1307.52 326.415 1327.12 324.865C1387.91 320.058 1364.84 189.648 1505.33 279.444C1513.34 284.562 1519.78 289.199 1524.81 293.413M1239.46 328.208C1235.47 308.186 1235.8 290.784 1235.8 290.784C1328.73 252.66 1384.93 174.356 1473.78 193.161C1513.51 201.57 1527.69 247.297 1524.81 293.413M1239.46 328.208C1244.64 354.182 1257.09 384.564 1286.95 387.081C1305.65 388.657 1322.79 387.67 1340.32 386.662M1239.46 328.208C1168.93 331.972 1102.48 343.637 1186.85 394.17C1311.36 468.752 1381.25 503.599 1342.66 407.426C1339.49 399.517 1338.89 392.65 1340.38 386.658M1524.81 293.413C1524.02 306.043 1521.96 318.702 1518.79 330.632M1524.81 293.413C1548.6 313.324 1540.97 323.765 1518.79 330.632M1340.38 386.658C1372.4 384.816 1405.69 382.911 1452.01 396.452C1482.86 405.473 1507.64 372.557 1518.79 330.632M1340.38 386.658C1351.1 343.566 1470.06 345.714 1518.79 330.632M1340.38 386.658L1340.32 386.662M1340.38 386.658C1340.36 386.66 1340.34 386.661 1340.32 386.662" stroke="black" stroke-width="2"/>
<path d="M74.1903 127.444C214.681 37.6478 191.611 168.058 252.402 172.865C272.003 174.415 306.494 174.417 340.061 176.208C344.053 156.186 343.725 138.784 343.725 138.784C250.787 100.66 194.595 22.3563 105.743 41.1614C66.0126 49.5702 51.8343 95.2969 54.7093 141.413C59.7431 137.199 66.1836 132.562 74.1903 127.444Z" fill="#FFC208"/>
<path d="M127.515 244.452C173.827 230.911 207.118 232.816 239.144 234.658C228.418 191.566 109.46 193.714 60.7345 178.632C71.8788 220.557 96.6648 253.473 127.515 244.452Z" fill="#FFC208"/>
<path d="M236.861 255.426C198.274 351.599 268.162 316.752 392.676 242.17C477.04 191.637 410.593 179.972 340.061 176.208C334.882 202.182 322.433 232.564 292.568 235.081C273.873 236.657 256.727 235.67 239.205 234.662L239.144 234.658C240.636 240.65 240.035 247.517 236.861 255.426Z" fill="#FFC208"/>
<path d="M236.861 255.426C198.274 351.599 268.162 316.752 392.676 242.17C477.04 191.637 410.593 179.972 340.061 176.208C334.882 202.182 322.433 232.564 292.568 235.081C273.873 236.657 256.727 235.67 239.205 234.662L239.144 234.658C240.636 240.65 240.035 247.517 236.861 255.426Z" fill="#FFC208"/>
<path d="M54.7093 141.413C55.4967 154.043 57.5633 166.702 60.7345 178.632C38.5467 171.765 30.9215 161.324 54.7093 141.413Z" fill="#FFC208"/>
<path d="M340.061 176.208C306.494 174.417 272.003 174.415 252.402 172.865C191.611 168.058 214.681 37.6478 74.1903 127.444C66.1836 132.562 59.7431 137.199 54.7093 141.413M340.061 176.208C344.053 156.186 343.725 138.784 343.725 138.784C250.787 100.66 194.595 22.3563 105.743 41.1614C66.0126 49.5702 51.8343 95.2969 54.7093 141.413M340.061 176.208C334.882 202.182 322.433 232.564 292.568 235.081C273.873 236.657 256.727 235.67 239.205 234.662M340.061 176.208C410.593 179.972 477.04 191.637 392.676 242.17C268.162 316.752 198.274 351.599 236.861 255.426C240.035 247.517 240.636 240.65 239.144 234.658M54.7093 141.413C55.4967 154.043 57.5633 166.702 60.7345 178.632M54.7093 141.413C30.9215 161.324 38.5467 171.765 60.7345 178.632M239.144 234.658C207.118 232.816 173.827 230.911 127.515 244.452C96.6648 253.473 71.8788 220.557 60.7345 178.632M239.144 234.658C228.418 191.566 109.46 193.714 60.7345 178.632M239.144 234.658L239.205 234.662M239.144 234.658C239.164 234.66 239.185 234.661 239.205 234.662" stroke="black" stroke-width="2"/>
</svg>
