<svg width="45" height="45" viewBox="0 0 45 45" fill="none" xmlns="http://www.w3.org/2000/svg">
<g clip-path="url(#clip0)">
<rect width="45" height="45" transform="translate(0.000236511)" fill="white"/>
<path d="M41.7548 0H3.24564C2.3849 0 1.55942 0.341925 0.950792 0.950556C0.342162 1.55919 0.000236511 2.38467 0.000236511 3.2454L0.000236511 41.7546C0.000236511 42.1808 0.0841813 42.6028 0.247278 42.9966C0.410374 43.3903 0.649429 43.7481 0.950792 44.0494C1.25216 44.3508 1.60993 44.5899 2.00368 44.753C2.39743 44.9161 2.81944 45 3.24564 45H41.7548C42.181 45 42.603 44.9161 42.9968 44.753C43.3905 44.5899 43.7483 44.3508 44.0497 44.0494C44.351 43.7481 44.5901 43.3903 44.7532 42.9966C44.9163 42.6028 45.0002 42.1808 45.0002 41.7546V3.2454C45.0002 2.81921 44.9163 2.39719 44.7532 2.00344C44.5901 1.60969 44.351 1.25192 44.0497 0.950556C43.7483 0.649192 43.3905 0.410138 42.9968 0.247041C42.603 0.0839448 42.181 0 41.7548 0V0ZM15.9617 34.0137H10.4825V17.5275H15.9626L15.9617 34.0137ZM13.2221 15.2766H13.1861C12.7945 15.2999 12.4022 15.2423 12.0338 15.1073C11.6654 14.9723 11.3288 14.7628 11.0449 14.492C10.7611 14.2211 10.5361 13.8947 10.384 13.533C10.2319 13.1713 10.156 12.7822 10.1609 12.3899C10.1659 11.9975 10.2516 11.6104 10.4128 11.2527C10.574 10.895 10.8072 10.5744 11.0978 10.3108C11.3884 10.0472 11.7302 9.84627 12.1019 9.72063C12.4736 9.59499 12.8672 9.54729 13.2581 9.5805C13.6518 9.55101 14.0473 9.6034 14.4197 9.73437C14.7921 9.86535 15.1333 10.0721 15.4219 10.3415C15.7104 10.6109 15.94 10.9372 16.0961 11.2998C16.2522 11.6623 16.3316 12.0533 16.3291 12.4481C16.3266 12.8428 16.2423 13.2328 16.0816 13.5933C15.9209 13.9539 15.6872 14.2773 15.3953 14.543C15.1034 14.8088 14.7596 15.0112 14.3855 15.1374C14.0115 15.2637 13.6154 15.3111 13.2221 15.2766ZM35.7221 34.0137H30.2402V25.1937C30.2402 22.977 29.4464 21.4659 27.4637 21.4659C26.8457 21.4696 26.2439 21.6642 25.7406 22.023C25.2374 22.3817 24.8572 22.8872 24.6521 23.4702C24.5118 23.9015 24.4508 24.3546 24.4721 24.8076V34.0146H18.9902C18.9902 34.0146 19.0622 19.0746 18.9902 17.5284H24.4694V19.863C24.9654 19.0015 25.6879 18.2923 26.5585 17.8125C27.4291 17.3327 28.4145 17.1006 29.4077 17.1414C33.0131 17.1414 35.7167 19.4976 35.7167 24.561L35.7221 34.0137Z" fill="black"/>
</g>
<defs>
<clipPath id="clip0">
<rect width="45" height="45" fill="white" transform="translate(0.000236511)"/>
</clipPath>
</defs>
</svg>
